<svg t="1623837076481" class="icon" viewBox="0 0 1024 1024" version="1.1" xmlns="http://www.w3.org/2000/svg" p-id="4825"
  width="120" height="120">
  <path fill="#000"
    d="M512 725.333333a73.386667 73.386667 0 0 1-56.746667-27.306666l-179.626666-217.6a89.6 89.6 0 0 1-11.093334-94.293334A75.093333 75.093333 0 0 1 332.373333 341.333333h359.253334a75.093333 75.093333 0 0 1 67.84 44.8 89.6 89.6 0 0 1-11.093334 94.293334l-179.626666 217.6A73.386667 73.386667 0 0 1 512 725.333333z"
    p-id="4826"></path><svg t="1623839304210" class="icon" viewBox="0 0 1024 1024" version="1.1"
    xmlns="http://www.w3.org/2000/svg" p-id="3013" width="120" height="120">
    <path
      d="M755.2 648.362667a42.666667 42.666667 0 0 1 0.554667 60.330666l-213.333334 217.173334a42.666667 42.666667 0 0 1-60.842666 0l-213.333334-217.173334a42.666667 42.666667 0 0 1 60.842667-59.818666L469.333333 791.68V128a42.666667 42.666667 0 1 1 85.333334 0v663.68l140.245333-142.805333a42.666667 42.666667 0 0 1 60.330667-0.512z"
      fill="#000" p-id="3014"></path>
  </svg>
</svg>