<?xml version="1.0" standalone="no"?>
<!DOCTYPE svg PUBLIC "-//W3C//DTD SVG 1.1//EN" "http://www.w3.org/Graphics/SVG/1.1/DTD/svg11.dtd"><svg t="1621739775763"
    class="icon" viewBox="0 0 1024 1024" version="1.1" xmlns="http://www.w3.org/2000/svg" p-id="142299"
    xmlns:xlink="http://www.w3.org/1999/xlink" width="200" height="200">
    <defs>
        <style type="text/css"></style>
    </defs>
    <path
        d="M512 921.83185788c-9.88191493 0-19.35772513-3.92569257-26.34473654-10.91270521l-310.47868112-310.47868113c-14.54903084-14.55027237-14.54903084-38.1392007 0-52.68947428 14.55027237-14.55151514 38.14044346-14.55151514 52.69071583-2e-8l284.13270183 284.13270183 284.13394339-284.13270181c14.54903084-14.55151514 38.14044346-14.55151514 52.68947427 0 14.55027237 14.55027237 14.55027237 38.13920069 0 52.68947428l-310.47868112 310.47868113C531.35772513 917.90616652 521.88067339 921.83185787 512 921.83185788z"
        fill="#000" p-id="142300"></path>
    <path
        d="M512 921.83185788c-20.57604301 0-37.25744174-16.68139873-37.25744173-37.25744174l-1e-8-745.14883349c0-20.57604301 16.68139873-37.25744174 37.25744174-37.25744173s37.25744174 16.68139873 37.25744174 37.25744173l-1e-8 745.14883349C549.25744174 905.15046036 532.57604301 921.83185787 512 921.83185788z"
        fill="#000" p-id="142301"></path>
</svg>