<?xml version="1.0" standalone="no"?>
<!DOCTYPE svg PUBLIC "-//W3C//DTD SVG 1.1//EN" "http://www.w3.org/Graphics/SVG/1.1/DTD/svg11.dtd"><svg t="1621781022514"
    class="icon" viewBox="0 0 1024 1024" version="1.1" xmlns="http://www.w3.org/2000/svg" p-id="172612"
    xmlns:xlink="http://www.w3.org/1999/xlink" width="200" height="200">
    <defs>
        <style type="text/css"></style>
    </defs>
    <path
        d="M865.834667 547.114667A35.285333 35.285333 0 0 0 896 512a35.157333 35.157333 0 0 0-34.901333-35.413333H247.466667l221.653333-224.042667 3.413333-3.968a35.84 35.84 0 0 0-3.285333-46.165333 34.56 34.56 0 0 0-49.365333-0.085334L138.752 486.4a35.84 35.84 0 0 0-0.512 50.730667l281.6 284.586666 3.968 3.413334a34.56 34.56 0 0 0 45.44-3.541334 35.797333 35.797333 0 0 0-0.128-50.133333L247.466667 547.456h613.674666l4.693334-0.341333z"
        fill="#000" p-id="172613"></path>
</svg>