<svg t="1623999148118" class="icon" viewBox="0 0 1024 1024" version="1.1" xmlns="http://www.w3.org/2000/svg" p-id="5780"
  width="120" height="120">
  <path
    d="M511.99232 1024A511.99232 511.99232 0 0 1 2.327238 558.552436h533.961445l-197.023954 197.023954a48.63927 48.63927 0 0 0 68.79315 68.746605l275.126055-275.07951a48.63927 48.63927 0 0 0 0-68.79315s-0.511992-0.279269-0.744716-0.511992a44.450242 44.450242 0 0 0-5.864639-8.843504L413.224347 207.791152a46.544756 46.544756 0 1 0-65.814285 65.814286L539.267547 465.462924H2.327238A511.99232 511.99232 0 1 1 511.99232 1024z"
    fill="#000" p-id="5781"></path>
</svg>