<svg t="1624263212900" class="icon" viewBox="0 0 1024 1024" version="1.1" xmlns="http://www.w3.org/2000/svg"
  p-id="87992" width="120" height="120">
  <path
    d="M512 1024C229.248 1024 0 794.752 0 512S229.248 0 512 0s512 229.248 512 512-229.248 512-512 512zM275.797333 398.677333l-23.893333 34.816c48.469333 19.114667 95.573333 46.421333 141.312 80.554667l25.258667-39.594667a765.141333 765.141333 0 0 0-142.677334-75.776z m62.805334-95.573333l-23.210667 34.816c47.786667 19.114667 93.525333 46.421333 138.581333 80.554667l25.258667-38.912a692.949333 692.949333 0 0 0-140.629333-76.458667z m188.416 0v143.36a407.168 407.168 0 0 1-16.384 103.082667H219.818667V597.333333h271.018666c-8.192 17.066667-18.432 32.768-30.72 47.786667-45.056 48.469333-123.562667 87.381333-236.885333 116.736l27.989333 43.690667c112.64-30.037333 193.877333-72.362667 243.712-126.293334 3.413333-4.096 6.826667-8.874667 10.922667-13.653333a2214.229333 2214.229333 0 0 1 261.461333 143.36l33.450667-36.864c-81.237333-51.2-171.349333-98.986667-270.336-143.36 5.461333-9.557333 10.24-20.48 15.018667-31.402667h270.336v-47.786666h-253.952a523.093333 523.093333 0 0 0 13.653333-103.082667v-143.36h-48.469333zM245.76 221.866667v45.738666h468.992c-9.557333 34.133333-21.162667 65.536-35.498667 93.525334l46.421334 12.970666c16.384-40.277333 30.037333-80.554667 40.277333-121.514666V221.866667H245.76z"
    fill="#000" p-id="87993"></path>
</svg>