<svg t="1622907661650" class="icon" viewBox="0 0 1024 1024" version="1.1" xmlns="http://www.w3.org/2000/svg"
    p-id="76674" width="200" height="200">
    <path d="M512 512m-512 0a512 512 0 1 0 1024 0 512 512 0 1 0-1024 0Z" fill="#0078E2" p-id="76675"></path>
    <path
        d="M724.6336 448H307.328a40 40 0 0 1-29.696-66.7136l103.2192-114.688a32.0128 32.0128 0 0 1 47.5648 42.8032L361.28 384h363.3536a32 32 0 1 1 0 64zM619.3536 768a32 32 0 0 1-23.7696-53.4016L662.72 640H299.3664a32 32 0 1 1 0-64H716.672c15.7696 0 30.0928 9.3056 36.5056 23.7056a40 40 0 0 1-6.8096 43.008l-103.2192 114.688a31.936 31.936 0 0 1-23.7952 10.5984z m97.3184-128H716.8h-0.128z"
        fill="#FFFFFF" p-id="76676"></path>
</svg>