<svg t="1622907613576" class="icon" viewBox="0 0 1024 1024" version="1.1" xmlns="http://www.w3.org/2000/svg"
    p-id="70404" width="200" height="200">
    <path d="M512 512m-512 0a512 512 0 1 0 1024 0 512 512 0 1 0-1024 0Z" fill="#F26255" p-id="70405"></path>
    <path
        d="M714.666667 401.664h-95.232a21.333333 21.333333 0 0 1-21.333334-21.333333V277.717333h-34.56v118.4a42.666667 42.666667 0 0 0 42.666667 42.666667h108.458667V704a42.666667 42.666667 0 0 1-42.666667 42.666667h-320a42.666667 42.666667 0 0 1-42.666667-42.666667V320.341333a42.666667 42.666667 0 0 1 42.624-42.666666l253.653334-0.341334c9.258667 0 18.133333 3.84 24.490666 10.581334l75.52 80.64a33.493333 33.493333 0 0 1 9.045334 22.912v10.197333zM403.2 494.933333a19.2 19.2 0 1 0 0 38.4h217.6a19.2 19.2 0 1 0 0-38.4h-217.6z m0 74.666667a19.2 19.2 0 1 0 0 38.4h217.6a19.2 19.2 0 1 0 0-38.4h-217.6z m0 74.666667a19.2 19.2 0 1 0 0 38.4h132.266667a19.2 19.2 0 1 0 0-38.4h-132.266667z"
        fill="#FFFFFF" p-id="70406"></path>
</svg>