<svg t="1622906793999" class="icon" viewBox="0 0 1024 1024" version="1.1" xmlns="http://www.w3.org/2000/svg"
    p-id="25008" width="200" height="200">
    <path d="M512 512m-512 0a512 512 0 1 0 1024 0 512 512 0 1 0-1024 0Z" fill="#12D284" p-id="25009"></path>
    <path
        d="M388.03456 689.13152h336.22016v13.88544a60.02688 60.02688 0 0 1-62.50496 59.55584h-312.5248A60.23168 60.23168 0 0 1 286.72 705.00352v-381.19424A60.23168 60.23168 0 0 1 349.22496 266.24h312.5248a64.7168 64.7168 0 0 1 45.2608 17.85856 56.64768 56.64768 0 0 1 17.24416 39.71072v321.536H388.03456a21.9136 21.9136 0 1 0 0 43.68384z m86.20032-248.17664l77.59872-27.79136 77.59872 29.77792v-146.92352h-157.34784z m0 0"
        fill="#FFFFFF" p-id="25010"></path>
</svg>