<svg t="1622905918730" class="icon" viewBox="0 0 1024 1024" version="1.1" xmlns="http://www.w3.org/2000/svg"
  p-id="11309" width="200" height="200">
  <path d="M512 512m-512 0a512 512 0 1 0 1024 0 512 512 0 1 0-1024 0Z" fill="#fff" p-id="11310"></path>
  <path
    d="M250.152646 728.209471c-7.98663-6.560446-75.587744-63.893036-109.816156-157.16546C105.822841 477.058496 135.05961 370.807799 213.214485 308.05571c30.377716-24.245125 72.164903-46.065738 143.331476-31.376044 26.812256 5.562117 98.691922 29.236769 93.415042 132.207242-0.713092 15.402786-4.849025 26.099164-11.266853 37.08078-0.142618 0.285237-0.285237 0.570474-0.427855 0.713092-31.518663 62.181616-125.504178 37.793872-123.079665-31.946518 0-0.998329 0.142618-1.996657 0.142618-2.852368 0.85571-16.686351-3.708078-33.372702-13.833983-46.77883-15.260167-20.251811-41.644568-37.08078-77.299165 5.704735-31.376045 37.508635-41.644568 88.28078-28.666295 135.344847 15.402786 55.763788 60.184958 116.947075 186.25961 90.562674 0.85571-0.142618 98.977159-12.693036 161.158774-198.952646 0 0 32.231755-90.277437 107.819499-143.046239 52.768802-36.795543 122.081337-41.644568 178.700836-10.981616 33.51532 18.112535 65.033983 49.203343 67.886351 101.972145 0.427855 6.988301 16.258496 138.197214-156.737605 323.03064-19.3961 20.679666-42.642897 36.22507-65.461838 52.483566-64.320891 45.780501-211.645682 147.752646-423.576602 7.986629-0.427855-0.142618-0.998329-0.570474-1.426184-0.998328z"
    fill="#0089B6" p-id="11311"></path>
</svg>