<?xml version="1.0" standalone="no"?>
<!DOCTYPE svg PUBLIC "-//W3C//DTD SVG 1.1//EN" "http://www.w3.org/Graphics/SVG/1.1/DTD/svg11.dtd"><svg t="1621936295864"
  class="icon" viewBox="0 0 1024 1024" version="1.1" xmlns="http://www.w3.org/2000/svg" p-id="54613"
  xmlns:xlink="http://www.w3.org/1999/xlink" width="120" height="120">
  <defs>
    <style type="text/css"></style>
  </defs>
  <path d="M512 524.288m-499.512195 0a499.512195 499.512195 0 1 0 999.02439 0 499.512195 499.512195 0 1 0-999.02439 0Z"
    fill="#000" p-id="54614"></path>
  <path
    d="M573.564878 477.758439l0.574439 14.535805-0.049951-14.535805h-0.524488z m-25.425171-174.654439a19.880585 19.880585 0 0 0-20.604878 2.222829c-0.249756 0.22478-28.746927 22.30322-60.191219 44.956098-54.746537 39.336585-70.680976 45.905171-73.90283 46.954146h-60.890536c-16.034341 0-30.070634 6.468683-39.611317 18.257171-8.192 10.140098-12.537756 23.427122-12.537756 38.412488v165.738146c0 14.985366 4.345756 28.27239 12.537756 38.412488 9.540683 11.788488 23.576976 18.282146 39.611317 18.282146h60.890536c3.221854 1.024 19.156293 7.592585 73.90283 46.954147 31.444293 22.627902 59.941463 44.706341 60.191219 44.931121a19.880585 19.880585 0 0 0 20.604878 2.247805 18.906537 18.906537 0 0 0 10.989269-17.108292V320.187317a18.906537 18.906537 0 0 0-10.989269-17.083317z m220.434732 233.571902a131.571512 131.571512 0 0 0-20.504976-70.431219 133.444683 133.444683 0 0 0-53.522731-48.028098 19.68078 19.68078 0 0 0-26.149464 8.341854 18.756683 18.756683 0 0 0 8.566634 25.525073 94.008195 94.008195 0 0 1 52.698537 84.692293 94.008195 94.008195 0 0 1-52.698537 84.692293 18.756683 18.756683 0 0 0-8.566634 25.525073 19.68078 19.68078 0 0 0 26.149464 8.341853 133.444683 133.444683 0 0 0 53.522731-48.028097c13.361951-21.054439 20.48-45.430634 20.48-70.43122V536.775805v-0.099903z m-104.073366 0a79.921951 79.921951 0 0 0-11.338927-38.312585 16.958439 16.958439 0 0 0-15.884487-10.364878c-9.340878 0-16.933463 7.192976-16.933464 16.034341 0 4.545561 1.998049 8.641561 5.194927 11.563708 3.047024 6.54361 4.89522 13.686634 5.244878 21.179317-0.349659 7.492683-2.197854 14.635707-5.244878 21.179317a15.58478 15.58478 0 0 0-5.194927 11.563707c0 8.841366 7.592585 16.034341 16.933464 16.034342 7.242927 0 13.461854-4.32078 15.884487-10.364878a79.921951 79.921951 0 0 0 11.338927-38.312586V536.775805v-0.099903z"
    fill="red" p-id="54615"></path>
</svg>