<?xml version="1.0" standalone="no"?><!DOCTYPE svg PUBLIC "-//W3C//DTD SVG 1.1//EN" "http://www.w3.org/Graphics/SVG/1.1/DTD/svg11.dtd"><svg t="1621925851817" class="icon" viewBox="0 0 1024 1024" version="1.1" xmlns="http://www.w3.org/2000/svg" p-id="56099" xmlns:xlink="http://www.w3.org/1999/xlink" width="120" height="120"><defs><style type="text/css"></style></defs><path d="M515.375824 829.89011c173.854945 0 315.076923-141.221978 315.076923-315.076923 0-57.951648-15.753846-111.964835-42.760439-158.663736l-513.687912 361.213186c58.514286 69.204396 144.597802 112.527473 241.371428 112.527473zM515.375824 199.736264c-173.854945 0-315.076923 141.221978-315.076923 315.076923 0 54.013187 13.503297 105.213187 37.696703 149.661538l512-360.087912c-57.389011-64.140659-141.221978-104.650549-234.61978-104.650549z" fill="#0A997D" p-id="56100"></path><path d="M171.041758 711.736264c-14.628571 10.127473-18.004396 30.382418-7.876923 45.010989s30.382418 18.004396 45.010989 7.876923l66.391209-46.698901c-14.065934-16.316484-25.881319-34.320879-36.571429-53.45055l-66.953846 47.261539zM860.835165 266.127473c-10.127473-14.628571-30.382418-18.004396-45.010989-7.876924l-65.828572 46.136264c14.628571 15.753846 27.006593 33.195604 37.696704 52.325275l64.703296-45.573626c15.191209-10.69011 18.567033-30.382418 8.439561-45.010989z" fill="#0A997D" p-id="56101"></path></svg>