<svg t="1622907749980" class="icon" viewBox="0 0 1024 1024" version="1.1" xmlns="http://www.w3.org/2000/svg"
  p-id="89409" width="200" height="200">
  <path d="M512 512m-512 0a512 512 0 1 0 1024 0 512 512 0 1 0-1024 0Z" fill="#44CCFF" p-id="89410"></path>
  <path
    d="M805.888 334.08c12.672-44.416 17.472-130.048-61.824-141.056-63.36-7.936-139.456 33.28-179.136 60.224a330.496 330.496 0 0 0-41.152-3.2c-103.04-1.6-169.6 33.28-226.688 107.84-20.608 26.88-39.616 72.96-46.016 125.184 28.544-49.152 117.376-139.52 210.88-175.936 0 0-141.056 101.44-210.88 244.16v1.6c-3.2 6.336-6.336 12.672-9.536 20.608-68.096 169.6-12.672 242.56 39.68 255.168 47.552 12.672 114.112-11.072 168-68.096 90.304 20.544 180.736-3.2 214.016-20.608 63.36-34.88 107.776-96.64 117.312-160.128H606.144s-7.936 55.424-101.44 55.424c-85.632 0-90.368-99.84-90.368-99.84h369.344s6.4-107.84-46.016-179.2c-30.08-39.552-69.76-74.496-125.184-93.44 17.472-12.736 46.016-31.808 71.36-38.144 47.488-12.672 79.232-4.736 99.84 30.144 26.88 47.552-15.872 156.928-15.872 156.928s25.408-31.616 38.08-77.632z m-382.016 420.16c-72.96 60.224-133.12 52.288-156.928 17.472-20.608-31.744-23.808-87.232 0-164.864 11.072 30.08 28.544 58.624 53.888 83.968 31.744 31.68 66.56 52.288 103.04 63.36z m-3.2-309.12s3.2-71.36 80.896-77.696c66.56-6.4 101.44 23.808 112.512 80.832l-193.408-3.2z"
    fill="#FFFFFF" p-id="89411"></path>
</svg>