<?xml version="1.0" standalone="no"?>
<!DOCTYPE svg PUBLIC "-//W3C//DTD SVG 1.1//EN" "http://www.w3.org/Graphics/SVG/1.1/DTD/svg11.dtd"><svg t="1621924061665"
  class="icon" viewBox="0 0 1024 1024" version="1.1" xmlns="http://www.w3.org/2000/svg" p-id="16358"
  xmlns:xlink="http://www.w3.org/1999/xlink" width="120" height="120">
  <defs>
    <style type="text/css"></style>
  </defs>
  <path d="M512.1 512.11m-384.07 0a384.07 384.07 0 1 0 768.14 0 384.07 384.07 0 1 0-768.14 0Z" fill="#171A1D"
    p-id="16359"></path>
  <path
    d="M449.203 513.369l64.254-64.254 64.254 64.254-64.254 64.254zM653.662 513.37l64.254-64.254 64.254 64.254-64.254 64.254zM244.745 513.368l64.254-64.254 64.254 64.254-64.254 64.254zM346.194 411.931l166.918-166.918 64.254 64.254-166.918 166.918z"
    fill="#F5B638" p-id="16360"></path>
  <path
    d="M616.488 476.18L449.57 309.263l64.255-64.254 166.918 166.918zM410.46 551.404l166.918 166.918-64.254 64.254-166.918-166.918z"
    fill="#F5B638" p-id="16361"></path>
  <path d="M680.748 615.666L513.83 782.584l-64.254-64.254 166.918-166.918z" fill="#F5B638" p-id="16362"></path>
</svg>