<?xml version="1.0" standalone="no"?><!DOCTYPE svg PUBLIC "-//W3C//DTD SVG 1.1//EN" "http://www.w3.org/Graphics/SVG/1.1/DTD/svg11.dtd"><svg t="1621925096429" class="icon" viewBox="0 0 1024 1024" version="1.1" xmlns="http://www.w3.org/2000/svg" p-id="52769" xmlns:xlink="http://www.w3.org/1999/xlink" width="120" height="120"><defs><style type="text/css"></style></defs><path d="M248.94 863.1a35 35 0 0 1-35-35V704.47a35 35 0 1 1 70.08 0v123.59a35 35 0 0 1-35.08 35.04z m160.68 0a35 35 0 0 1-35-35V569.59a35 35 0 1 1 70.08 0v258.47a35 35 0 0 1-35.08 35.04z m160.75 0a35 35 0 0 1-35-35V611.4a35 35 0 0 1 70.08 0v216.66a35 35 0 0 1-35.08 35.04z m160.75 0a35 35 0 0 1-35-35V482.61a35 35 0 0 1 70.08 0v345.45a35 35 0 0 1-35.08 35.04zM248.94 572.67a35 35 0 0 1-29.36-54.13l133.1-204.41a77.53 77.53 0 0 1 117.84-14.37l88.69 82.8 11.09-1.09L702.79 199a35 35 0 0 1 56.66 41.2L627 422.66a77.34 77.34 0 0 1-55.36 31.62c-21.9 2.67-44.14-5.34-60.29-20.53l-88.62-82.8-11.29 1.37-133.14 204.4a34.94 34.94 0 0 1-29.36 15.95z" fill="#42494F" p-id="52770"></path><path d="M775.06 332.88a35 35 0 0 1-35-35V231h-66.9a35 35 0 1 1 0-70.08h101.9a35 35 0 0 1 35 35v101.9a35 35 0 0 1-35 35.06z" fill="#42494F" p-id="52771"></path></svg>