<?xml version="1.0" standalone="no"?>
<!DOCTYPE svg PUBLIC "-//W3C//DTD SVG 1.1//EN" "http://www.w3.org/Graphics/SVG/1.1/DTD/svg11.dtd"><svg t="1621935863233"
  class="icon" viewBox="0 0 1024 1024" version="1.1" xmlns="http://www.w3.org/2000/svg" p-id="37602"
  xmlns:xlink="http://www.w3.org/1999/xlink" width="120" height="120">
  <defs>
    <style type="text/css"></style>
  </defs>
  <path d="M508.672 410.88a94.72 94.72 0 1 0 94.72 94.72 94.72 94.72 0 0 0-94.72-94.72z" fill="#2CD499" p-id="37603">
  </path>
  <path
    d="M512 0a512 512 0 1 0 512 512A512 512 0 0 0 512 0z m253.184 307.2l-92.928 326.4A46.336 46.336 0 0 1 640 665.6l-325.632 92.672A46.592 46.592 0 0 1 256 700.928l93.184-325.376a46.848 46.848 0 0 1 32-32L707.584 250.88a46.592 46.592 0 0 1 57.6 56.32z"
    fill="#000" p-id="37604"></path>
</svg>