<?xml version="1.0" standalone="no"?>
<!DOCTYPE svg PUBLIC "-//W3C//DTD SVG 1.1//EN" "http://www.w3.org/Graphics/SVG/1.1/DTD/svg11.dtd"><svg t="1621935817654"
  class="icon" viewBox="0 0 1024 1024" version="1.1" xmlns="http://www.w3.org/2000/svg" p-id="35259"
  xmlns:xlink="http://www.w3.org/1999/xlink" width="120" height="120">
  <defs>
    <style type="text/css"></style>
  </defs>
  <path
    d="M512.238 0c-282.79 0-512 229.221-512 512s229.21 512 512 512c282.767 0 512-229.221 512-512S795.005 0 512.238 0z m194.084 766.762H318.119v-72.823h388.215v72.823z m48.52-291.162a48.41 48.41 0 0 1-9.977-1.036l-40.96 195.132h-383.37l-40.96-195.132a48.52 48.52 0 1 1 27.292-16.42L415.16 548.4l79.05-197.597a48.52 48.52 0 1 1 36.019 0l79.038 197.609 108.306-90.28a48.509 48.509 0 0 1 37.269-79.573 48.533 48.533 0 0 1 0.024 97.041z"
    fill="#000" p-id="35260"></path>
</svg>