<?xml version="1.0" standalone="no"?>
<!DOCTYPE svg PUBLIC "-//W3C//DTD SVG 1.1//EN" "http://www.w3.org/Graphics/SVG/1.1/DTD/svg11.dtd"><svg t="1621235016853"
    class="icon" viewBox="0 0 1181 1024" version="1.1" xmlns="http://www.w3.org/2000/svg" p-id="19651"
    xmlns:xlink="http://www.w3.org/1999/xlink" width="138.3984375" height="120">
    <defs>
        <style type="text/css"></style>
    </defs>
    <path d="M0 918.974359a590.769231 105.025641 0 1 0 1181.538462 0 590.769231 105.025641 0 1 0-1181.538462 0Z"
        fill="#FFF7E8" p-id="19652"></path>
    <path
        d="M329.255385 315.076923h523.027692a52.512821 52.512821 0 0 1 42.929231 22.449231L1063.384615 577.641026v301.948718a52.512821 52.512821 0 0 1-52.51282 52.51282H170.666667a52.512821 52.512821 0 0 1-52.512821-52.51282V577.641026l168.172308-240.114872A52.512821 52.512821 0 0 1 329.255385 315.076923z"
        fill="#FFCC72" p-id="19653"></path>
    <path
        d="M288.820513 0h603.897436a26.25641 26.25641 0 0 1 26.25641 26.25641v735.179487a26.25641 26.25641 0 0 1-26.25641 26.256411H288.820513a26.25641 26.25641 0 0 1-26.25641-26.256411V26.25641a26.25641 26.25641 0 0 1 26.25641-26.25641z"
        fill="#FFF7E8" p-id="19654"></path>
    <path
        d="M367.589744 91.897436h446.358974a13.128205 13.128205 0 0 1 13.128205 13.128205v236.307692a13.128205 13.128205 0 0 1-13.128205 13.128205H367.589744a13.128205 13.128205 0 0 1-13.128206-13.128205V105.025641a13.128205 13.128205 0 0 1 13.128206-13.128205z m0 341.333333h446.358974a13.128205 13.128205 0 0 1 0 26.25641H367.589744a13.128205 13.128205 0 0 1 0-26.25641z m0 78.769231h446.358974a13.128205 13.128205 0 0 1 0 26.25641H367.589744a13.128205 13.128205 0 0 1 0-26.25641z"
        fill="#FFD48A" p-id="19655"></path>
    <path
        d="M367.589744 611.774359l10.633846 28.356923A65.641026 65.641026 0 0 0 439.401026 682.666667h276.48a65.641026 65.641026 0 0 0 61.571282-42.535385L787.692308 611.774359a52.512821 52.512821 0 0 1 49.493333-34.133333H1063.384615v301.948718a52.512821 52.512821 0 0 1-52.51282 52.51282H170.666667a52.512821 52.512821 0 0 1-52.512821-52.51282V577.641026h199.942564A52.512821 52.512821 0 0 1 367.589744 611.774359z"
        fill="#FFDDA1" p-id="19656"></path>
</svg>