<svg t="1625104228553" class="icon" viewBox="0 0 1024 1024" version="1.1" xmlns="http://www.w3.org/2000/svg" p-id="6171"
    width="120" height="120">
    <path
        fill="#000"
        d="M513.216 650.656a608.608 608.608 0 0 1 464.896 214.464c18.304 21.504 15.84 53.312-5.568 72.416a48.608 48.608 0 0 1-32.48 12.128c-15.264 0-29.792-6.496-39.936-17.792-97.824-113.984-239.36-179.392-388.192-179.392a508.384 508.384 0 0 0-388.288 179.552 50.496 50.496 0 0 1-38.4 18.08 48.96 48.96 0 0 1-32.64-12.544 50.432 50.432 0 0 1-18.112-35.136c-0.896-13.216 3.52-25.984 12.448-35.936 117.76-137.184 287.68-215.808 466.272-215.808z m291.456-263.008c-46.688 0-86.112-40.352-86.112-88.16V170.752c0-47.776 39.424-88.16 86.112-88.16s86.112 40.384 86.112 88.16v128.736c0 48.608-38.624 88.16-86.112 88.16z m-584.448 0c-46.688 0-86.112-40.352-86.112-88.16V170.752c0-47.776 39.424-88.16 86.112-88.16s86.144 40.384 86.144 88.16v128.736c0 47.776-39.424 88.16-86.144 88.16z"
        p-id="6172"></path>
</svg>