<?xml version="1.0" standalone="no"?>
<!DOCTYPE svg PUBLIC "-//W3C//DTD SVG 1.1//EN" "http://www.w3.org/Graphics/SVG/1.1/DTD/svg11.dtd"><svg t="1621739998162"
    class="icon" viewBox="0 0 1024 1024" version="1.1" xmlns="http://www.w3.org/2000/svg" p-id="154369"
    xmlns:xlink="http://www.w3.org/1999/xlink" width="200" height="200">
    <defs>
        <style type="text/css"></style>
    </defs>
    <path
        fill="#000"
        d="M955.3 397.4c5.3 16 6.1 31.8 2.5 47.4-3.7 15.6-11.2 29.5-22.5 41.4L784.5 640l35.9 217.6c2 12.6 1.3 25.1-2 37.4-3.3 12.3-9.1 23.3-17.5 33-8.3 9.7-18.3 17.1-30 22.4-11.6 5.3-23.8 8-36.4 8-14.6 0-28.6-3.7-41.9-11L512 847.7l-180.7 99.8c-13.3 7.3-27.3 11-41.9 11-12.6 0-24.8-2.7-36.4-8-11.6-5.3-21.6-13-29.9-23-8.3-10-14.1-21-17.5-33-3.3-12-4-24.3-2-36.9L239.4 640 88.7 486.3c-11.3-12-18.8-25.8-22.4-41.4-3.7-15.6-2.8-31.3 2.5-46.9 5.3-15.6 14.1-28.6 26.5-38.9 12.3-10.3 26.4-16.8 42.4-19.5l204.7-31 91.9-194.7c7.3-16 18.1-28.3 32.4-36.9 14.3-8.6 29.5-13 45.4-13 16 0 31.1 4.3 45.4 13S583 98 591 113.9l90.8 194.7 204.7 31c16 2.6 30.1 9.1 42.4 19.5 12.2 10.2 21.1 23 26.4 38.3z"
        p-id="154370"></path>
</svg>