<?xml version="1.0" standalone="no"?><!DOCTYPE svg PUBLIC "-//W3C//DTD SVG 1.1//EN" "http://www.w3.org/Graphics/SVG/1.1/DTD/svg11.dtd"><svg t="1621393638951" class="icon" viewBox="0 0 1024 1024" version="1.1" xmlns="http://www.w3.org/2000/svg" p-id="16970" xmlns:xlink="http://www.w3.org/1999/xlink" width="120" height="120"><defs><style type="text/css"></style></defs><path d="M838.826667 170.24c-112.64-76.8-251.733333-40.96-326.826667 46.933333-75.093333-87.893333-214.186667-124.16-326.826667-46.933333-59.733333 40.96-97.28 110.08-99.84 183.04-5.973333 165.546667 140.8 298.24 364.8 501.76l4.266667 3.84c32.426667 29.44 82.346667 29.44 114.773333-0.426667l4.693334-4.266666c224-203.093333 370.346667-335.786667 364.8-501.333334-2.56-72.533333-40.106667-141.653333-99.84-182.613333zM516.266667 791.466667l-4.266667 4.266666-4.266667-4.266666C304.64 607.573333 170.666667 485.973333 170.666667 362.666667 170.666667 277.333333 234.666667 213.333333 320 213.333333c65.706667 0 129.706667 42.24 152.32 100.693334h79.786667C574.293333 255.573333 638.293333 213.333333 704 213.333333c85.333333 0 149.333333 64 149.333333 149.333334 0 123.306667-133.973333 244.906667-337.066666 428.8z" p-id="16971"></path></svg>