<svg t="1624265996302" class="icon" viewBox="0 0 1024 1024" version="1.1" xmlns="http://www.w3.org/2000/svg"
    p-id="89613" width="1600" height="1600">
    <path
        d="M0 0m78.769231 0l866.461538 0q78.769231 0 78.769231 78.769231l0 866.461538q0 78.769231-78.769231 78.769231l-866.461538 0q-78.769231 0-78.769231-78.769231l0-866.461538q0-78.769231 78.769231-78.769231Z"
        fill="#FB363F" fill-opacity="1" p-id="89614"></path>
    <path
        d="M343.827692 583.128615a30.483692 30.483692 0 0 0 23.709539 7.286154 31.271385 31.271385 0 0 0 21.385846-12.957538L453.789538 487.187692l64.59077 57.383385a29.932308 29.932308 0 0 0 23.591384 7.601231 31.113846 31.113846 0 0 0 21.543385-12.603077l148.361846-200.585846a34.461538 34.461538 0 0 0 2.756923-4.608l26.033231-32.374154c13.981538-17.329231 7.955692-28.593231-13.312-25.009231L604.632615 297.629538c-21.267692 3.584-25.718154 19.101538-9.846153 34.500924l24.536615 23.788307L533.937231 471.433846 469.070769 413.696a30.523077 30.523077 0 0 0-23.827692-7.601231 31.113846 31.113846 0 0 0-21.582769 12.996923L358.478769 509.755077l-31.310769-27.017846a30.365538 30.365538 0 0 0-44.347077 4.686769 34.500923 34.500923 0 0 0 4.450462 46.788923L343.827692 583.128615z"
        fill="#fff" p-id="89615"></path>
    <path
        d="M707.229538 408.733538l-143.872 186.210462c-6.459077 8.704-22.843077-3.780923-30.798769-10.948923l-57.816615-54.075077c-7.916308-7.168-19.810462 4.962462-26.387692 13.587692l-67.190154 87.591385c-6.577231 8.625231-18.432-1.260308-26.308923-8.507077L296.251077 573.046154c-10.515692-10.752-20.558769 0.472615-20.558769 21.897846l0.393846 132.726154c0 11.145846 8.507077 20.243692 18.865231 20.283077L729.009231 748.307692c10.397538 0 18.865231-9.058462 18.865231-20.204307L748.307692 419.682462c0-29.144615-21.661538-34.776615-41.078154-10.948924z"
        fill="#fff" p-id="89616"></path>
</svg>