<svg t="1625048808452" class="icon" viewBox="0 0 1024 1024" version="1.1" xmlns="http://www.w3.org/2000/svg"
    p-id="17719" width="200" height="200">
    <path
        d="M844.8 25.6a153.6 153.6 0 0 1 153.6 153.6v665.6a153.6 153.6 0 0 1-153.6 153.6H179.2a153.6 153.6 0 0 1-153.6-153.6V179.2a153.6 153.6 0 0 1 153.6-153.6h665.6z"
        fill="#ef4444" p-id="17720"></path>
    <path d="M658.2528 575.36l-185.2928-185.2928L658.2528 204.8c102.3232 102.3232 102.3232 268.2368 0 370.56"
        fill="#FFFFFF" fill-opacity=".84" p-id="17721"></path>
    <path d="M843.52 760.6528l-185.2672-185.2928 185.2672-185.2928c102.3232 102.3488 102.3232 268.2368 0 370.5856z"
        fill="#FFFFFF" fill-opacity=".84" p-id="17722"></path>
    <path d="M472.96 760.6528l185.2928-185.2928 185.2672 185.2928c-102.3232 102.3232-268.2368 102.3232-370.56 0"
        fill="#FFFFFF" fill-opacity=".36" p-id="17723" data-spm-anchor-id="a313x.7781069.0.i1"></path>
    <path
        d="M472.96 390.0928C370.6368 287.744 204.7232 287.744 102.4 390.0928l185.2672 185.2672 185.2928 185.2928c-102.3232-102.3488-102.3232-268.2368 0-370.56"
        fill="#FFFFFF" fill-opacity=".84" p-id="17724"></path>
    <path d="M472.96 760.6528c-102.3232-102.3488-102.3232-268.2368 0-370.5856l185.2928 185.2928-185.2928 185.2928z"
        fill="#FFFFFF" fill-opacity=".6" p-id="17725"></path>
</svg>