<?xml version="1.0" standalone="no"?><!DOCTYPE svg PUBLIC "-//W3C//DTD SVG 1.1//EN" "http://www.w3.org/Graphics/SVG/1.1/DTD/svg11.dtd"><svg t="1621698923009" class="icon" viewBox="0 0 1024 1024" version="1.1" xmlns="http://www.w3.org/2000/svg" p-id="119757" xmlns:xlink="http://www.w3.org/1999/xlink" width="200" height="200"><defs><style type="text/css"></style></defs><path d="M142.4384 333.312l352 196.864c10.9056 6.144 24.2176 6.144 35.1232 0l352-196.9152a35.9936 35.9936 0 0 0-0.0512-62.8736l-352-195.84a35.9936 35.9936 0 0 0-35.0208 0L142.4896 270.336a35.9936 35.9936 0 0 0-0.0512 62.8736zM512 147.1488l278.1184 154.7264L512 457.5232 233.8816 301.9264 512 147.2z m334.7456 342.2208L512 672.0512 181.4528 491.6736a35.9936 35.9936 0 0 0-34.9184 62.976l0.4096 0.256 347.8016 189.7472c10.752 5.888 23.7568 5.888 34.5088 0l352-192a35.9936 35.9936 0 0 0-34.5088-63.232z m0 211.5584L512 883.6096l-330.5472-180.3776a35.9936 35.9936 0 1 0-34.5088 63.232l347.8016 189.7472c10.752 5.888 23.7568 5.888 34.5088 0l352-192a35.9936 35.9936 0 0 0-34.5088-63.232z" p-id="119758"></path></svg>