<svg t="1623925110305" class="icon" viewBox="0 0 1024 1024" version="1.1" xmlns="http://www.w3.org/2000/svg" p-id="9984"
  width="120" height="120">
  <path
    d="M321.67 151.7h-2.39c-92.55 0-167.58 75.03-167.58 167.57v2.39c0 92.55 75.03 167.57 167.58 167.57h144.37c14.14 0 25.6-11.46 25.6-25.6V319.27c-0.01-92.54-75.03-167.57-167.58-167.57z"
    fill="#000" opacity=".4" p-id="9985"></path>
  <path
    d="M704.73 151.7h-2.39c-92.55 0-167.58 75.03-167.58 167.58v144.37c0 14.14 11.46 25.6 25.6 25.6h144.37c92.54 0 167.57-75.02 167.57-167.57v-2.4c-0.01-92.55-75.03-167.58-167.57-167.58z"
    fill="#000" opacity=".6" p-id="9986"></path>
  <path
    d="M704.73 534.76H560.36c-14.14 0-25.6 11.46-25.6 25.6v144.37c0 92.55 75.03 167.58 167.58 167.58h2.39c92.54 0 167.57-75.03 167.57-167.58v-2.39c-0.01-92.56-75.03-167.58-167.57-167.58z"
    fill="#000" p-id="9987"></path>
  <path
    d="M463.64 534.76H319.28c-92.54 0-167.58 75.03-167.58 167.58v2.39c0 92.55 75.03 167.58 167.58 167.58h2.39c92.55 0 167.58-75.03 167.58-167.58V560.36c-0.01-14.14-11.47-25.6-25.61-25.6z"
    fill="#000" opacity=".8" p-id="9988"></path>
</svg>