<svg t="1624263189821" class="icon" viewBox="0 0 1024 1024" version="1.1" xmlns="http://www.w3.org/2000/svg"
  p-id="87196" width="120" height="120">
  <path
    d="M512 1024C229.248 1024 0 794.752 0 512S229.248 0 512 0s512 229.248 512 512-229.248 512-512 512zM285.354667 500.565333l-23.210667 34.133334c49.152 17.066667 96.938667 40.277333 143.36 70.314666l24.576-37.546666a721.28 721.28 0 0 0-144.725333-66.901334zM346.112 430.933333l-23.893333 34.816c47.786667 15.018667 94.890667 36.181333 139.946666 62.122667l25.258667-37.546667A828.586667 828.586667 0 0 0 346.112 430.933333z m191.146667 2.048v108.544c-1.365333 25.941333-5.461333 49.834667-13.653334 71.68h-293.546666v47.104h268.288a248.106667 248.106667 0 0 1-28.672 32.085334c-44.373333 36.864-122.88 66.901333-236.202667 89.429333l25.941333 41.642667c113.322667-23.893333 194.56-56.661333 244.394667-98.986667a104.96 104.96 0 0 1 8.874667-8.192 1317.632 1317.632 0 0 1 247.125333 109.226667l27.306667-43.008a1533.098667 1533.098667 0 0 0-246.442667-99.669334c4.778667-7.509333 9.557333-15.018667 13.653333-22.528h245.077334v-47.104H573.44a328.704 328.704 0 0 0 10.922667-71.68v-108.544h-47.104zM237.568 361.984v44.373333h492.202667c-10.922667 40.96-23.893333 77.824-40.277334 110.592l46.421334 12.970667a980.053333 980.053333 0 0 0 43.690666-137.898667v-30.037333h-240.981333V296.448h199.338667v-44.373333h-199.338667V198.144h-47.786667v53.930667H287.402667v44.373333h203.434666v65.536H237.568z"
    fill="#000" p-id="87197"></path>
</svg>