<svg t="1622515870811"
  class="icon" viewBox="0 0 1024 1024" version="1.1" xmlns="http://www.w3.org/2000/svg" p-id="6653"
  xmlns:xlink="http://www.w3.org/1999/xlink" width="120" height="120">
  <path
    d="M512.789333 128v64H192.490667v639.914667H832v-311.68h64V853.333333a42.666667 42.666667 0 0 1-42.666667 42.666667H170.773333a42.666667 42.666667 0 0 1-42.666666-42.666667V170.666667a42.666667 42.666667 0 0 1 42.666666-42.666667h342.016z m232-30.144a42.666667 42.666667 0 0 1 60.16-0.213333l113.984 112.533333 2.645334 2.837333a42.666667 42.666667 0 0 1-2.389334 57.621334l-418.133333 419.776a21.333333 21.333333 0 0 1-15.104 6.272H341.333333a21.333333 21.333333 0 0 1-21.333333-21.333334v-143.146666a21.333333 21.333333 0 0 1 6.229333-15.082667z m30.293334 60.245333L384 549.824v82.858667h84.202667l390.506666-392.021334-83.626666-82.56z"
    fill="#000" p-id="6654"></path>
</svg>