<svg t="1622517457867"
  class="icon" viewBox="0 0 1024 1024" version="1.1" xmlns="http://www.w3.org/2000/svg" p-id="55559"
  xmlns:xlink="http://www.w3.org/1999/xlink" width="120" height="120">
  <path
    fill="#000"
    d="M638.470032 138.200184l-34.70243-9.513475c-4.466669-1.489543-8.8667-1.021121-13.145216 1.401346-4.292236 2.424427-7.190964 6.064008-8.680507 10.912862L373.221636 863.405714c-1.489543 4.850814-1.023081 9.425279 1.401346 13.709675 2.424427 4.292236 6.056168 7.183125 10.912862 8.672668l34.692631 9.517395c4.476468 1.501302 8.86082 1.03092 13.151096-1.395467 4.292236-2.436187 7.185085-6.064008 8.672668-10.905022L650.77836 160.588406c1.487583-4.848854 1.025041-9.423319-1.403306-13.717514C646.948667 142.578656 643.320846 139.687767 638.470032 138.200184z"
    p-id="55560"></path>
  <path
    fill="#000"
    d="M325.675818 279.2207c0-4.848854-1.867808-9.14305-5.597546-12.870827l-27.981848-27.979888c-3.729737-3.729737-8.021973-5.599505-12.870827-5.599505s-9.14305 1.871728-12.870827 5.599505L5.598524 499.126233C1.862907 502.85597 0.000978 507.148206 0.000978 511.99706c0 4.848854 1.867808 9.14109 5.597546 12.868867l260.754288 260.756248c3.727777 3.735617 8.014133 5.593626 12.870827 5.593626s9.14305-1.863889 12.870827-5.593626l27.981848-27.964208c3.729737-3.727777 5.597546-8.021973 5.597546-12.876707 0-4.842974-1.867808-9.13521-5.597546-12.862987L100.16686 511.99706l219.911413-219.905533C323.81389 288.36375 325.675818 284.069554 325.675818 279.2207z"
    p-id="55561"></path>
  <path
    fill="#000"
    d="M1018.405393 499.120354 757.643265 238.364106c-3.727777-3.727777-8.021973-5.599505-12.862987-5.599505-4.856694 0-9.13521 1.871728-12.876707 5.599505l-27.970088 27.977928c-3.727777 3.729737-5.587746 8.016093-5.587746 12.870827s1.858009 9.14305 5.587746 12.870827l219.915333 219.911413L703.933483 731.918273c-3.727777 3.727777-5.587746 8.021973-5.587746 12.862987 0 4.856694 1.858009 9.148929 5.587746 12.876707l27.970088 27.964208c3.741497 3.735617 8.021973 5.593626 12.876707 5.593626 4.842974 0 9.13521-1.863889 12.862987-5.593626L1018.405393 524.867887c3.729737-3.727777 5.593626-8.027852 5.593626-12.876707C1023.999018 507.140366 1022.13513 502.848131 1018.405393 499.120354z"
    p-id="55562"></path>
</svg>