<svg t="1622518060825" class="icon" viewBox="0 0 1024 1024" version="1.1" xmlns="http://www.w3.org/2000/svg"
  p-id="67854" width="120" height="120">
  <path
    fill="#000"
    d="M89.173333 636.501333c-2.218667-5.12-3.754667-10.581333-4.096-16.554667C86.4256 625.578667 87.808 631.057067 89.173333 636.501333z"
    p-id="67855"></path>
  <path
    fill="#000"
    d="M964.676267 763.648l-73.386667-19.456c-72.362667 121.685333-202.24 206.336-354.133333 214.510933-210.261333 11.434667-394.24-126.805333-447.829333-322.048 0-0.170667 0-0.170667-0.170667-0.170667-1.365333-5.444267-2.730667-10.922667-4.096-16.554667-1.365333-24.917333 17.578667-46.08 42.325333-47.445333 24.917333-1.365333 46.08 17.578667 47.445333 42.496l0 0.512c43.690667 154.965333 190.293333 264.533333 357.376 255.488 112.64-6.314667 209.749333-64.682667 269.312-150.528l-76.305067-20.138667c1.194667-3.413333 2.901333-6.314667 5.632-8.362667l145.2544-111.428267c6.2976-4.778667 13.653333-2.9184 16.708267 4.437333l70.997333 168.789333C965.205333 756.821333 965.358933 760.234667 964.676267 763.648z"
    p-id="67856"></path>
  <path
    fill="#000"
    d="M939.076267 404.053333c1.365333 24.917333-17.749333 46.08-42.496 47.445333s-46.08-17.749333-47.445333-42.496l0-1.024c-44.032-154.794667-190.276267-264.021333-357.205333-254.976-112.64 6.314667-209.92 64.682667-269.653333 150.528l76.458667 20.138667c-1.024 3.242667-2.901333 6.314667-5.632 8.362667l-145.237333 111.445333c-6.144 4.778667-13.653333 2.730667-16.725333-4.437333l-70.997333-168.789333c-1.365333-3.072-1.536-6.485333-0.682667-9.898667l73.386667 19.456c72.192-121.685333 202.069333-206.336 354.133333-214.528 210.261333-11.434667 394.24 126.805333 447.829333 322.048 0 0.170667 0.170667 0.170667 0.170667 0.170667C936.3456 392.96 937.710933 398.421333 939.076267 404.053333z"
    p-id="67857"></path>
  <path
    fill="#000"
    d="M939.076267 404.053333c-1.365333-5.632-2.730667-11.093333-4.096-16.554667C937.198933 392.618667 938.734933 398.08 939.076267 404.053333z"
    p-id="67858"></path>
</svg>