<svg t="1621260209055" class="icon" viewBox="0 0 1024 1024" version="1.1" xmlns="http://www.w3.org/2000/svg"
    p-id="22540" width="200" height="200">
    <path
        d="M292.194974 589.040266c-31.002119 0-37.202543 31.002119-15.811081 71.924917l196.863458 333.272782c21.391462 39.682713 56.113836 39.682713 77.505298 0l196.863458-333.272782c21.391462-39.682713 14.260975-71.924917-15.811081-71.924917z m0-155.010596h439.610052c31.002119 0 37.202543-31.002119 15.811081-71.924917L550.752649 31.002119C529.361187-9.920678 494.638813-9.920678 473.247351 31.002119L276.383893 363.034817C254.992431 403.027551 262.122919 434.02967 292.194974 434.02967z"
        fill="#000" p-id="22541"></path>
    <path
        d="M292.194974 434.02967h439.610052c31.002119 0 37.202543-31.002119 15.811081-71.924917L550.752649 31.002119C529.361187-9.920678 494.638813-9.920678 473.247351 31.002119L276.383893 363.034817C254.992431 403.027551 262.122919 434.02967 292.194974 434.02967z"
        fill="#999" p-id="22542"></path>
</svg>