<?xml version="1.0" standalone="no"?><!DOCTYPE svg PUBLIC "-//W3C//DTD SVG 1.1//EN" "http://www.w3.org/Graphics/SVG/1.1/DTD/svg11.dtd"><svg t="1620721391752" class="icon" viewBox="0 0 1024 1024" version="1.1" xmlns="http://www.w3.org/2000/svg" p-id="6204" xmlns:xlink="http://www.w3.org/1999/xlink" width="120" height="120"><defs><style type="text/css"></style></defs><path fill="#000" d="M674.56 576a32 32 0 0 1 28.288 46.912l-2.08 3.424-162.56 232.224a32 32 0 0 1-49.92 3.136l-2.496-3.136-162.56-232.224a32 32 0 0 1 22.496-50.112l3.744-0.224h325.056zM528.416 130.752a32 32 0 0 1 10.976 10.976l167.488 279.136a32 32 0 0 1-27.424 48.48H344.512a32 32 0 0 1-27.424-48.48l167.488-279.136a32 32 0 0 1 43.872-10.976z" p-id="6205"></path></svg>