<?xml version="1.0" standalone="no"?>
<!DOCTYPE svg PUBLIC "-//W3C//DTD SVG 1.1//EN" "http://www.w3.org/Graphics/SVG/1.1/DTD/svg11.dtd"><svg t="1621915136215"
  class="icon" viewBox="0 0 1024 1024" version="1.1" xmlns="http://www.w3.org/2000/svg" p-id="39683"
  xmlns:xlink="http://www.w3.org/1999/xlink" width="180" height="180">
  <defs>
    <style type="text/css"></style>
  </defs>
  <path fill="#000" d="M276.4 205.31l-0.26 0.21c2.19-1.65 3-2.29 3.15-2.39l-0.45 0.33c-0.84 0.61-1.63 1.23-2.44 1.85z" p-id="39684">
  </path>
  <path
    fill="#000"
    d="M956.2 486.08c-4.14-72.83-25.71-144.34-63.69-206.72a450.78 450.78 0 0 0-148.85-149.29C681.41 91.9 610 70.15 537.21 65.77c-73.77-4.44-147.57 10.52-214.5 41.48a437.91 437.91 0 0 0-160.23 127.51c-44.13 56.65-75.4 123-88.06 193.87-13.9 77.87-8.28 159.3 19.32 233.68C121 735.73 166.72 802.17 227.36 852A481.69 481.69 0 0 0 276 887.39c13.32 8.42 33.74 3.24 41.15-10.79 7.84-14.83 3.43-32.16-10.79-41.15q-10.5-6.63-20.6-13.84c-2.85-2-5.66-4.13-8.46-6.23l1.7 1.36c-0.76-0.61-1.53-1.2-2.3-1.8l-0.09-0.07-0.23-0.18c-1-0.72-2.37-1.87-1.68-1.35-1-0.83-2.08-1.65-3.11-2.49A415.83 415.83 0 0 1 235.65 778q-8.62-8.88-16.71-18.23-3.8-4.41-7.48-8.92-1.85-2.27-3.65-4.54l-0.63-0.8a438.28 438.28 0 0 1-26.87-40A419 419 0 0 1 157 659.6a417.85 417.85 0 0 1-26.71-97.81 424.73 424.73 0 0 1 0-103.57 417.6 417.6 0 0 1 26.63-97.66 418.13 418.13 0 0 1 27-52q8.26-13.48 17.55-26.32 1.94-2.67 3.9-5.3l1.49-2c3.07-3.88 6.17-7.72 9.37-11.5a417.87 417.87 0 0 1 43.21-44q5.43-4.77 11-9.35 2.85-2.33 5.72-4.59l-1.5 1.12 1.76-1.33 0.18-0.14c1-0.8 2.9-2.2 2.71-2q11.93-8.9 24.46-16.92A417.63 417.63 0 0 1 362.62 155a417.56 417.56 0 0 1 97.47-26.57 424.31 424.31 0 0 1 103.58 0A417.62 417.62 0 0 1 661.33 155a418.83 418.83 0 0 1 52 27q13.49 8.27 26.32 17.55c1.78 1.29 3.54 2.59 5.3 3.9l2 1.49c3.88 3.07 7.72 6.17 11.5 9.37a415.84 415.84 0 0 1 44 43.21q4.79 5.43 9.36 11c1.55 1.9 3.08 3.8 4.59 5.72l-1.12-1.5c0.44 0.59 0.88 1.18 1.33 1.76l0.14 0.18c0.8 1 2.2 2.9 2 2.71q8.9 11.93 16.92 24.46a417.63 417.63 0 0 1 31.26 58.87 417.4 417.4 0 0 1 26.56 97.47 424.23 424.23 0 0 1 0 103.57 418 418 0 0 1-26.77 98 417.65 417.65 0 0 1-47 81.51l-2.16 2.87c-0.38 0.49-0.75 1-1.12 1.48q-4.07 5.16-8.3 10.18-7.75 9.21-16 17.95a417.8 417.8 0 0 1-35.56 33.45c-3.22 2.69-6.49 5.31-9.78 7.91l-1.3 1q-2.93 2.19-5.88 4.33-11.26 8.14-23 15.53c-13.31 8.36-19.79 27.19-10.79 41.15 8.59 13.33 26.9 19.75 41.15 10.79 66.2-41.6 121.72-100.31 158.24-169.57 37.39-71.01 55.55-152.03 50.98-232.26z"
    p-id="39685"></path>
  <path
    fill="#000"
    d="M816.58 274.53l-0.21-0.26c1.65 2.19 2.29 3 2.39 3.15l-0.33-0.45c-0.61-0.82-1.23-1.63-1.85-2.44zM277.3 815.38c-1.48-1.18-2.28-1.8-2.6-2l1.91 1.53zM755.25 632.88c21.85-43.56 32.61-92.75 29.15-141.5-3.17-44.48-16.44-88-40.08-126a278.09 278.09 0 0 0-91.19-90.33c-38-23.11-81.5-36.07-125.83-38.83-45.14-2.82-90 6.63-131 25.26-77.14 35-135.77 109.46-152 192.58-9.21 47.19-7 96.85 8.85 142.44 15.65 45.17 42.61 86.62 78.94 117.9a314.22 314.22 0 0 0 30.62 23.26c13.13 8.75 33.87 3 41.16-10.79 8-15.12 3.21-31.82-10.79-41.15-2.45-1.63-4.87-3.28-7.26-5-1.7-1.21-6.8-5.24-5.48-4.15-3.43-2.79-6.82-5.62-10.1-8.59a245.49 245.49 0 0 1-23.82-24.77c-1.72-2.06-3.35-4.2-5.06-6.27 6.67 8.06 0.09 0-1.43-2.13q-5.13-7.19-9.72-14.7a247 247 0 0 1-14.86-28.44 247.1 247.1 0 0 1-14.78-54.14 250 250 0 0 1 0-57.41 246.17 246.17 0 0 1 14.75-54 244.37 244.37 0 0 1 15-28.69q4.62-7.56 9.8-14.79c1.68-2.34 8.6-10.8 1.59-2.31 1.95-2.36 3.82-4.78 5.8-7.11a244.51 244.51 0 0 1 25.2-25.69q3.21-2.81 6.5-5.51c0.81-0.67 1.64-1.32 2.46-2q7.21-5.4 14.82-10.25a246.31 246.31 0 0 1 32.76-17.51 246.4 246.4 0 0 1 53.87-14.68 249.82 249.82 0 0 1 57.46 0 246.1 246.1 0 0 1 54 14.75 244.37 244.37 0 0 1 28.69 15q7.57 4.63 14.79 9.8c2.34 1.68 10.8 8.6 2.31 1.59 2.36 1.95 4.78 3.82 7.12 5.8a245.48 245.48 0 0 1 25.68 25.21q2.81 3.19 5.51 6.49c0.67 0.81 1.32 1.64 2 2.46q5.4 7.21 10.25 14.83a244.43 244.43 0 0 1 17.51 32.75 246.47 246.47 0 0 1 14.68 53.86 250.43 250.43 0 0 1 0 57.4 247.08 247.08 0 0 1-14.78 54.12 244.62 244.62 0 0 1-14.72 28.22q-4.57 7.51-9.68 14.68c-1.58 2.22-8 10.33-1.41 2.12-1.82 2.29-3.63 4.58-5.5 6.83a246.18 246.18 0 0 1-24.34 25.17q-3.27 2.92-6.63 5.73c-0.94 0.78-1.88 1.55-2.83 2.31l-1.35 1.07-0.65 0.49q-1.77 1.32-3.55 2.59-3.88 2.76-7.86 5.38c-13.11 8.66-19.92 27-10.79 41.15 8.43 13.08 27.11 20.06 41.16 10.79 39.93-26.31 73.56-62.43 95.06-105.29zM381 340.51c-0.92 0.72-1.75 1.38-1.73 1.34a6.44 6.44 0 0 1 1.73-1.34z m299.22 37.54c-0.72-0.91-1.38-1.75-1.34-1.72a6 6 0 0 1 1.38 1.72z"
    p-id="39686"></path>
  <path
    fill="#000"
    d="M511.88 407.74a102.28 102.28 0 0 0-30.08 200V883c0 15.07-0.33 30.18 0 45.25v0.65c0 15.73 13.84 30.8 30.08 30.07S542 945.76 542 928.9V607.78a102.29 102.29 0 0 0-30.08-200z"
    p-id="39687"></path>
</svg>