<?xml version="1.0" standalone="no"?>
<!DOCTYPE svg PUBLIC "-//W3C//DTD SVG 1.1//EN" "http://www.w3.org/Graphics/SVG/1.1/DTD/svg11.dtd"><svg t="1621697798079"
    class="icon" viewBox="0 0 1024 1024" version="1.1" xmlns="http://www.w3.org/2000/svg" p-id="54440"
    xmlns:xlink="http://www.w3.org/1999/xlink" width="200" height="200">
    <defs>
        <style type="text/css"></style>
    </defs>
    <path
        fill="#000"
        d="M144.896 861.696C119.296 861.696 102.4 844.8 102.4 819.2V221.696C102.4 196.096 119.296 179.2 144.896 179.2c25.6 0 42.496 16.896 42.496 42.496V819.2c0 25.088-16.896 42.496-42.496 42.496z m763.5968 0H140.6464C117.6064 861.696 102.4 844.8 102.4 819.2c0-25.6 15.2064-42.496 38.2464-42.496h768.3072c23.04 0 38.2464 16.896 38.2464 42.496 0 25.088-15.6672 42.496-38.7072 42.496z m-209.1008-240.64c-11.776 0-23.552-5.12-31.232-13.824l-144.896-157.696-139.776 104.96c-18.944 14.336-45.568 10.24-59.904-8.704-14.336-18.944-10.24-45.568 8.704-59.904l170.496-128c17.408-13.312 41.984-10.752 56.832 5.12l132.608 144.896 140.8-225.28a43.008 43.008 0 0 1 58.88-13.824c19.968 12.288 26.112 38.912 13.312 58.88L734.72 600.576c-7.168 11.264-18.944 18.432-32.256 19.968-0.512 0.512-1.536 0.512-3.072 0.512z"
        p-id="54441"></path>
</svg>