<svg t="1621928376865"
  class="icon" viewBox="0 0 1024 1024" version="1.1" xmlns="http://www.w3.org/2000/svg" p-id="87483"
  xmlns:xlink="http://www.w3.org/1999/xlink" width="120" height="120">
  <path
    fill="#000"
    d="M100.218349 795.959694L363.127203 652.998646v-8.368451C250.850477 558.853566 235.508316 404.037211 235.508316 279.905179a251.053548 251.053548 0 0 1 271.277306-278.948386h9.065822a251.750919 251.750919 0 0 1 271.277306 278.948386c0 126.921516-15.342161 278.948386-127.618887 367.514499v8.368452l262.211483 142.961048a69.737097 69.737097 0 0 1 36.960662 62.066016v93.447709a69.737097 69.737097 0 0 1-69.737097 69.737097H132.994784a69.737097 69.737097 0 0 1-69.737097-69.737097v-96.237193a69.737097 69.737097 0 0 1 36.960662-62.066016z m216.88237-521.633482c0 120.645177 12.552677 252.44829 109.487242 313.816934a43.237 43.237 0 0 1 18.829016 35.56592v69.737096c0 14.64479-11.855306 28.59221-36.960661 41.842258a1457.505319 1457.505319 0 0 0-255.237774 135.987338v73.921323h714.80524v-76.013435A1711.34835 1711.34835 0 0 0 614.18075 733.196307q-37.658032-20.223758-37.658032-41.842258v-69.737096a42.539629 42.539629 0 0 1 19.526387-35.56592C690.891557 526.774501 705.536347 394.971389 705.536347 274.326212a170.158516 170.158516 0 0 0-189.684903-193.869129h-9.065822c-126.224145 0-189.684903 65.552871-189.684903 193.869129z"
    p-id="87484"></path>
</svg>